<svg width="32" height="32" viewBox="0 0 32 32" fill="none" xmlns="http://www.w3.org/2000/svg">
<path d="M4.70508 15.0078C3.12524 15.0078 1.8322 16.3001 1.83203 17.8799V22.5869C1.83217 24.1667 3.12522 25.459 4.70508 25.459H6.58691C7.13181 25.4589 7.57711 25.0136 7.57715 24.4688V15.998C7.57701 15.4532 7.13175 15.0079 6.58691 15.0078H4.70508ZM25.4111 15.0078C24.8662 15.0078 24.42 15.4532 24.4199 15.998V24.4688C24.42 25.0136 24.8662 25.459 25.4111 25.459H27.293C28.8728 25.459 30.1658 24.1667 30.166 22.5869V17.8799C30.1658 16.3001 28.8728 15.0078 27.293 15.0078H25.4111ZM25.4609 27.2432H25.4111C23.8863 27.243 22.6387 25.9946 22.6387 24.4697V16C22.6387 14.4752 23.8863 13.2268 25.4111 13.2266H26.4023V12.2354C26.4021 6.49563 21.7398 1.83301 16 1.83301C10.2602 1.83301 5.59788 6.49597 5.59766 12.2354V13.2266H6.58887C8.11366 13.2268 9.36133 14.4752 9.36133 16V24.4697C9.36133 25.9946 8.11366 27.243 6.58887 27.2432H4.70605C2.13569 27.2429 0.0499378 25.1572 0.0498047 22.5869V17.8799C0.0499493 15.628 1.65116 13.7466 3.77344 13.3184L3.81348 13.3096V12.2344C3.81348 5.51338 9.27709 0.0485486 15.998 0.0498047C22.7177 0.0498047 28.1826 5.51335 28.1826 12.2344V13.3193H28.2295C30.3504 13.7579 31.9501 15.637 31.9502 17.8799V22.5869C31.95 25.1573 29.8642 27.2429 27.2939 27.2432H27.2441V29.1748C27.2441 30.6997 25.9956 31.9481 24.4707 31.9482H16C15.5102 31.9482 15.1096 31.5473 15.1094 31.0576C15.1094 30.5677 15.5101 30.1661 16 30.166H24.4707C25.0156 30.1659 25.4609 29.7197 25.4609 29.1748V27.2432Z" fill="#46AE3D" stroke="#E5E0FF" stroke-width="0.0995556"/>
</svg>
