<svg width="34" height="20" viewBox="0 0 34 20" fill="none" xmlns="http://www.w3.org/2000/svg">
<path d="M9.79041 11.907C10.4989 11.7661 11.2334 11.8386 11.9008 12.115C12.5682 12.3914 13.1391 12.8591 13.5404 13.4597C13.9417 14.0604 14.1556 14.7666 14.1556 15.489C14.1545 16.4574 13.7701 17.3863 13.0853 18.071C12.4006 18.7558 11.4717 19.1402 10.5033 19.1414C9.78091 19.1413 9.07465 18.9275 8.474 18.5261C7.87337 18.1248 7.40572 17.5539 7.12927 16.8865C6.85288 16.2191 6.78034 15.4846 6.92126 14.7761C7.06226 14.0678 7.40956 13.4167 7.92029 12.906C8.43101 12.3953 9.08203 12.048 9.79041 11.907ZM10.5033 13.1667C10.0441 13.1668 9.59506 13.3032 9.21326 13.5583C8.83145 13.8135 8.53352 14.1761 8.35779 14.6003C8.18205 15.0246 8.13636 15.4917 8.22595 15.9421C8.31554 16.3925 8.53703 16.8059 8.86169 17.1306C9.18636 17.4553 9.59986 17.6767 10.0502 17.7664C10.5005 17.8559 10.9677 17.8102 11.392 17.6345C11.8162 17.4588 12.1788 17.1609 12.434 16.7791C12.6891 16.3972 12.8256 15.9482 12.8256 15.489C12.8249 14.8736 12.5799 14.2836 12.1449 13.8484C11.7096 13.4131 11.1189 13.1673 10.5033 13.1667Z" fill="#7451FF" stroke="#7451FF" stroke-width="0.1"/>
<path d="M19.7804 0.950195C19.9568 0.950195 20.1263 1.01984 20.2511 1.14453C20.3758 1.26928 20.4454 1.43882 20.4454 1.61523V15.4883C20.4454 15.6647 20.3758 15.8342 20.2511 15.959C20.1263 16.0838 19.9569 16.1543 19.7804 16.1543H13.4904C13.3141 16.1542 13.1453 16.0836 13.0206 15.959C12.8958 15.8342 12.8253 15.6647 12.8253 15.4883C12.8254 15.3119 12.8959 15.1433 13.0206 15.0186C13.1453 14.8938 13.314 14.8233 13.4904 14.8232H19.1154V2.28027H2.2804V14.8232H7.51575C7.69222 14.8232 7.86167 14.8938 7.98645 15.0186C8.11108 15.1433 8.18168 15.312 8.18176 15.4883C8.18176 15.6647 8.11123 15.8342 7.98645 15.959C7.86167 16.0837 7.69219 16.1543 7.51575 16.1543H1.61536C1.43894 16.1543 1.2694 16.0837 1.14465 15.959C1.02001 15.8342 0.950317 15.6646 0.950317 15.4883V1.61523C0.950354 1.43882 1.0199 1.26928 1.14465 1.14453C1.2694 1.01978 1.43894 0.950232 1.61536 0.950195H19.7804Z" fill="#7451FF" stroke="#7451FF" stroke-width="0.1"/>
<path d="M22.6823 14.8232C22.8586 14.8232 23.0282 14.8929 23.153 15.0176C23.2777 15.1423 23.3482 15.3119 23.3483 15.4883C23.3483 15.6647 23.2777 15.8342 23.153 15.959C23.0282 16.0837 22.8587 16.1533 22.6823 16.1533H19.7809C19.6045 16.1533 19.4349 16.0837 19.3102 15.959C19.1855 15.8342 19.1158 15.6647 19.1158 15.4883C19.1159 15.3119 19.1854 15.1423 19.3102 15.0176C19.4349 14.8928 19.6045 14.8233 19.7809 14.8232H22.6823Z" fill="#7451FF" stroke="#7451FF" stroke-width="0.1"/>
<path d="M24.8805 2.21997C25.9533 2.21997 27.0163 2.43151 28.0074 2.84204C28.9983 3.25254 29.8984 3.85418 30.6569 4.61255C31.4154 5.37112 32.0178 6.27182 32.4283 7.26294C32.8388 8.25398 33.0504 9.31624 33.0504 10.3889V15.4885C33.0504 15.665 32.9799 15.8344 32.8551 15.9592C32.7303 16.084 32.5609 16.1545 32.3844 16.1545H28.6569C28.4804 16.1545 28.3109 16.084 28.1862 15.9592C28.0615 15.8345 27.9918 15.6649 27.9918 15.4885C27.9919 15.3121 28.0614 15.1425 28.1862 15.0178C28.3109 14.8931 28.4805 14.8235 28.6569 14.8235H31.7194V10.3889C31.7194 6.61852 28.6513 3.55005 24.8805 3.55005H19.7809C19.6045 3.55001 19.4349 3.48046 19.3102 3.35571C19.1855 3.23094 19.1158 3.06141 19.1158 2.88501C19.1159 2.70859 19.1854 2.53906 19.3102 2.41431C19.4349 2.28956 19.6045 2.22001 19.7809 2.21997H24.8805Z" fill="#7451FF" stroke="#7451FF" stroke-width="0.1"/>
<path d="M24.8799 4.55664C28.0959 4.55664 30.7129 7.17304 30.7129 10.3887C30.7129 10.5651 30.6424 10.7346 30.5176 10.8594C30.3928 10.9841 30.2233 11.0537 30.0469 11.0537H22.1006C21.9242 11.0537 21.7546 10.9841 21.6299 10.8594C21.5051 10.7346 21.4356 10.5651 21.4355 10.3887V5.22168C21.4356 5.04526 21.5051 4.87573 21.6299 4.75098C21.7546 4.62623 21.9242 4.55668 22.1006 4.55664H24.8799ZM22.7656 9.72363H29.332C29.1729 8.66776 28.6443 7.70197 27.8389 6.99902C27.0191 6.28355 25.968 5.8881 24.8799 5.88672H22.7656V9.72363Z" fill="#7451FF" stroke="#7451FF" stroke-width="0.1"/>
<path d="M24.9553 11.907C25.6638 11.7661 26.3983 11.8386 27.0657 12.115C27.7331 12.3914 28.304 12.8591 28.7053 13.4597C29.1067 14.0604 29.3205 14.7666 29.3206 15.489C29.3194 16.4574 28.935 17.3863 28.2502 18.071C27.5655 18.7558 26.6366 19.1402 25.6682 19.1414C24.9458 19.1413 24.2396 18.9275 23.6389 18.5261C23.0383 18.1248 22.5706 17.5539 22.2942 16.8865C22.0178 16.2191 21.9453 15.4846 22.0862 14.7761C22.2272 14.0678 22.5745 13.4167 23.0852 12.906C23.5959 12.3953 24.247 12.048 24.9553 11.907ZM25.6682 13.1667C25.209 13.1668 24.76 13.3032 24.3782 13.5583C23.9964 13.8135 23.6984 14.1761 23.5227 14.6003C23.347 15.0246 23.3013 15.4917 23.3909 15.9421C23.4805 16.3925 23.7019 16.8059 24.0266 17.1306C24.3513 17.4553 24.7648 17.6767 25.2151 17.7664C25.6655 17.8559 26.1326 17.8102 26.5569 17.6345C26.9812 17.4588 27.3437 17.1609 27.5989 16.7791C27.854 16.3972 27.9905 15.9482 27.9905 15.489C27.9898 14.8736 27.7448 14.2836 27.3098 13.8484C26.8745 13.4131 26.2838 13.1673 25.6682 13.1667Z" fill="#7451FF" stroke="#7451FF" stroke-width="0.1"/>
<path d="M14.0963 3.22681C14.2727 3.22681 14.4422 3.29642 14.567 3.42114C14.6918 3.54589 14.7613 3.71543 14.7614 3.89185C14.7614 4.0683 14.6918 4.23777 14.567 4.36255C14.4422 4.48733 14.2728 4.55688 14.0963 4.55688H7.29944C7.12302 4.55685 6.95348 4.4873 6.82874 4.36255C6.70404 4.23778 6.6344 4.06825 6.6344 3.89185C6.63444 3.71543 6.70399 3.54589 6.82874 3.42114C6.95348 3.29639 7.12302 3.22684 7.29944 3.22681H14.0963Z" fill="#7451FF" stroke="#7451FF" stroke-width="0.1"/>
<path d="M14.0966 6.38403C14.2727 6.38412 14.4416 6.45391 14.5663 6.57837C14.691 6.70312 14.7616 6.87265 14.7616 7.04907C14.7616 7.22554 14.6911 7.39499 14.5663 7.51978C14.4416 7.64432 14.2728 7.71402 14.0966 7.71411H9.24695C9.07053 7.71407 8.90099 7.64452 8.77625 7.51978C8.65155 7.39501 8.58191 7.22547 8.58191 7.04907C8.58195 6.87265 8.6515 6.70312 8.77625 6.57837C8.90099 6.45362 9.07053 6.38407 9.24695 6.38403H14.0966Z" fill="#7451FF" stroke="#7451FF" stroke-width="0.1"/>
<path d="M14.097 9.54321C14.2732 9.54329 14.4421 9.61309 14.5668 9.73755C14.6915 9.8623 14.762 10.0318 14.7621 10.2083C14.7621 10.3847 14.6916 10.5542 14.5668 10.679C14.4421 10.8035 14.2733 10.8732 14.097 10.8733H11.5844C11.4079 10.8733 11.2384 10.8037 11.1136 10.679C10.989 10.5542 10.9193 10.3847 10.9193 10.2083C10.9193 10.0318 10.9889 9.8623 11.1136 9.73755C11.2384 9.6128 11.4079 9.54325 11.5844 9.54321H14.097Z" fill="#7451FF" stroke="#7451FF" stroke-width="0.1"/>
</svg>
