<svg width="41" height="36" viewBox="0 0 41 36" fill="none" xmlns="http://www.w3.org/2000/svg">
<path d="M13.3894 21.7845C13.6835 23.1191 14.5661 24.8985 15.5957 25.1951C21.5098 27.2276 27.7922 27.1553 33.9943 27.2408V10.6402C33.9943 7.50776 31.4756 4.96851 28.3685 4.96851H11.3807C9.70274 4.96851 8.19715 5.71009 7.1665 6.88481C12.0367 9.87293 11.8676 16.4844 13.3894 21.7845Z" fill="#9DDE97"/>
<path d="M37.6563 14.75L33.953 14.4531C33.6457 18.5677 33.953 24.6562 33.9531 25.8125C35.2344 25.8125 36.7188 18.7812 37.6563 14.75Z" fill="#6BC662"/>
<path d="M32.6513 28.066C32.5382 28.066 32.4246 28.0614 32.3103 28.0519L17.8216 26.8595C15.5992 26.6767 13.723 25.0937 13.1527 22.9206L10.328 12.1568C9.82721 10.2428 9.30917 8.26395 7.09593 7.66443L0.795717 6.35862C0.31827 6.25971 0.0108562 5.78935 0.109111 5.30801C0.207366 4.82667 0.674517 4.5169 1.15123 4.61581L7.52278 5.93778C10.7499 6.79384 11.4924 9.6313 12.0346 11.7029L12.0709 11.8415L14.8589 22.4656C15.2384 23.9114 16.4866 24.9644 17.9651 25.0862L32.4539 26.2785C33.6059 26.3736 34.6645 25.627 34.9717 24.5041L37.6409 14.7497L19.1396 13.2175C18.7394 13.1847 18.362 13.3423 18.1028 13.6511C17.8436 13.9596 17.7514 14.3615 17.8497 14.7536L18.6754 18.046C18.9484 19.1341 19.8761 19.9408 20.9838 20.0533L29.7063 20.9395C30.1517 20.9847 30.5585 20.7173 30.6982 20.2898C30.7886 20.0128 30.7496 19.714 30.591 19.4701C30.4325 19.226 30.1762 19.0708 29.8881 19.0439L22.5631 18.3609C22.0777 18.3157 21.7207 17.8823 21.7656 17.3931C21.8106 16.9039 22.238 16.5437 22.7256 16.5891L30.0506 17.2721C30.8771 17.3492 31.6121 17.7948 32.0672 18.4947C32.5223 19.1944 32.6342 20.0517 32.3748 20.8465C31.9738 22.0731 30.8024 22.8395 29.5293 22.7099L20.8069 21.8237C18.9628 21.6364 17.4187 20.2935 16.9642 18.4821L16.1385 15.1897C15.8987 14.2337 16.1236 13.2538 16.7556 12.5012C17.3877 11.7487 18.3092 11.3637 19.2841 11.444L39.909 13.1522L36.6733 24.9775C36.1714 26.8116 34.5117 28.0658 32.6513 28.066Z" fill="#46AE3D"/>
<path d="M17.483 32.6799C18.8098 32.6799 19.8853 31.5955 19.8853 30.2579C19.8853 28.9203 18.8098 27.8359 17.483 27.8359C16.1562 27.8359 15.0806 28.9203 15.0806 30.2579C15.0806 31.5955 16.1562 32.6799 17.483 32.6799Z" fill="#FB6565"/>
<path d="M30.3777 32.4576C31.1794 32.4576 31.8292 31.8025 31.8292 30.9943C31.8292 30.1861 31.1794 29.531 30.3777 29.531C29.5761 29.531 28.9263 30.1861 28.9263 30.9943C28.9263 31.8025 29.5761 32.4576 30.3777 32.4576Z" fill="#FB6565"/>
<path d="M15.2523 10.8606C16.4166 10.8606 17.3605 9.90907 17.3605 8.73525C17.3605 7.56143 16.4166 6.60986 15.2523 6.60986C14.0879 6.60986 13.144 7.56143 13.144 8.73525C13.144 9.90907 14.0879 10.8606 15.2523 10.8606Z" fill="#811B1B"/>
<path d="M18.4211 6.5171C19.995 6.5171 21.2709 5.23079 21.2709 3.64405C21.2709 2.0573 19.995 0.770996 18.4211 0.770996C16.8472 0.770996 15.5713 2.0573 15.5713 3.64405C15.5713 5.23079 16.8472 6.5171 18.4211 6.5171Z" fill="#FB6565"/>
<path d="M19.5834 9.0319C20.134 9.0319 20.5803 8.58191 20.5803 8.02681C20.5803 7.47172 20.134 7.02173 19.5834 7.02173C19.0328 7.02173 18.5864 7.47172 18.5864 8.02681C18.5864 8.58191 19.0328 9.0319 19.5834 9.0319Z" fill="#46AE3D"/>
<path d="M24.4617 7.42546C25.7344 7.42546 26.7661 6.38533 26.7661 5.10226C26.7661 3.81919 25.7344 2.77905 24.4617 2.77905C23.189 2.77905 22.1572 3.81919 22.1572 5.10226C22.1572 6.38533 23.189 7.42546 24.4617 7.42546Z" fill="#811B1B"/>
<path d="M27.1049 11.355C28.1406 11.355 28.9802 10.5086 28.9802 9.46438C28.9802 8.4202 28.1406 7.57373 27.1049 7.57373C26.0691 7.57373 25.2295 8.4202 25.2295 9.46438C25.2295 10.5086 26.0691 11.355 27.1049 11.355Z" fill="#FF6700"/>
<path d="M35.0663 12.1829C36.102 12.1829 36.9417 11.3364 36.9417 10.2923C36.9417 9.24809 36.102 8.40161 35.0663 8.40161C34.0306 8.40161 33.1909 9.24809 33.1909 10.2923C33.1909 11.3364 34.0306 12.1829 35.0663 12.1829Z" fill="#FB6565"/>
<path d="M22.6555 11.0585C23.346 11.0585 23.9058 10.4942 23.9058 9.79803C23.9058 9.10191 23.346 8.5376 22.6555 8.5376C21.965 8.5376 21.4053 9.10191 21.4053 9.79803C21.4053 10.4942 21.965 11.0585 22.6555 11.0585Z" fill="#46AE3D"/>
<path d="M29.9118 6.80759C30.7783 6.80759 31.4807 6.0994 31.4807 5.22581C31.4807 4.35223 30.7783 3.64404 29.9118 3.64404C29.0452 3.64404 28.3428 4.35223 28.3428 5.22581C28.3428 6.0994 29.0452 6.80759 29.9118 6.80759Z" fill="#FB6565"/>
<path d="M30.8923 11.5529C31.5828 11.5529 32.1426 10.9885 32.1426 10.2924C32.1426 9.5963 31.5828 9.03198 30.8923 9.03198C30.2018 9.03198 29.6421 9.5963 29.6421 10.2924C29.6421 10.9885 30.2018 11.5529 30.8923 11.5529Z" fill="#46AE3D"/>
<path d="M32.5351 8.48809C33.1173 8.48809 33.5893 8.01227 33.5893 7.42532C33.5893 6.83837 33.1173 6.36255 32.5351 6.36255C31.9529 6.36255 31.481 6.83837 31.481 7.42532C31.481 8.01227 31.9529 8.48809 32.5351 8.48809Z" fill="#FF6700"/>
</svg>
