<svg width="30" height="36" viewBox="0 0 30 36" fill="none" xmlns="http://www.w3.org/2000/svg">
<path fill-rule="evenodd" clip-rule="evenodd" d="M10.334 20.515C10.334 19.3434 11.2836 18.3938 12.4552 18.3938C13.6268 18.3938 14.5764 19.3434 14.5764 20.515C14.5764 21.6866 13.6268 22.6362 12.4552 22.6362C11.2836 22.6362 10.334 21.6866 10.334 20.515ZM12.4552 19.2423C11.7526 19.2423 11.1825 19.8124 11.1825 20.515C11.1825 21.2176 11.7526 21.7877 12.4552 21.7877C13.1578 21.7877 13.7279 21.2176 13.7279 20.515C13.7279 19.8124 13.1578 19.2423 12.4552 19.2423Z" fill="#F98207" stroke="#F98207" stroke-width="0.6"/>
<path fill-rule="evenodd" clip-rule="evenodd" d="M15.8486 25.6058C15.8486 24.4342 16.7982 23.4846 17.9698 23.4846C19.1415 23.4846 20.0911 24.4342 20.0911 25.6058C20.0911 26.7775 19.1415 27.727 17.9698 27.727C16.7982 27.727 15.8486 26.7775 15.8486 25.6058ZM17.9698 24.3331C17.2672 24.3331 16.6971 24.9032 16.6971 25.6058C16.6971 26.3085 17.2672 26.8786 17.9698 26.8786C18.6725 26.8786 19.2426 26.3085 19.2426 25.6058C19.2426 24.9032 18.6725 24.3331 17.9698 24.3331Z" fill="#F98207" stroke="#F98207" stroke-width="0.6"/>
<path d="M19.2826 18.9424C19.4466 19.1081 19.4466 19.3765 19.2826 19.5423L11.482 27.3428C11.3163 27.5069 11.0479 27.5069 10.8821 27.3428C10.7164 27.1771 10.7164 26.907 10.8821 26.7413L18.6809 18.9424C18.8467 18.7767 19.1168 18.7766 19.2826 18.9424Z" fill="#F98207" stroke="#F98207" stroke-width="0.6"/>
<path fill-rule="evenodd" clip-rule="evenodd" d="M17.0799 2.70193C18.0925 2.75828 19.0454 3.21565 19.7232 3.97797L28.0358 13.3295C28.6572 14.0289 29.0002 14.9304 29.0002 15.8667V31.1212C29.0002 33.2292 27.29 34.9394 25.1821 34.9394H4.81843C2.71045 34.9394 1.00024 33.2292 1.00024 31.1212V15.8667C1.00024 14.9304 1.34328 14.0289 1.96472 13.3295L10.2773 3.97797C10.9551 3.21565 11.908 2.75827 12.9206 2.70193C13.1145 1.7308 13.9729 1 15.0003 1C16.0278 1 16.886 1.73084 17.0799 2.70193ZM12.8789 3.55538C12.1233 3.62001 11.419 3.97134 10.9102 4.54141L2.5993 13.893C2.11541 14.4365 1.8486 15.1392 1.8486 15.8667V31.1212C1.8486 32.7618 3.17767 34.0909 4.8183 34.0909H25.1819C26.8226 34.0909 28.1516 32.7618 28.1516 31.1212V15.8667C28.1516 15.1392 27.8848 14.4365 27.4009 13.893L19.09 4.54141C18.5813 3.97131 17.8769 3.61999 17.1213 3.55538V6.30965C18.1438 6.99408 18.8183 8.16075 18.8183 9.48485C18.8183 11.5928 17.1081 13.303 15.0001 13.303C12.8921 13.303 11.1819 11.5928 11.1819 9.48485C11.1819 8.16075 11.8564 6.99408 12.8789 6.30965L12.8789 3.55538ZM13.0181 7.27247C12.4116 7.81601 12.0305 8.6065 12.0305 9.48481C12.0305 11.1254 13.3595 12.4545 15.0002 12.4545C16.6408 12.4545 17.9699 11.1254 17.9699 9.48481C17.9699 8.6065 17.5887 7.81601 16.9822 7.27247C16.6773 8.06958 15.905 8.63632 15.0002 8.63632C14.0953 8.63632 13.3231 8.06958 13.0181 7.27247ZM13.7274 3.12117C13.7274 2.41854 14.2975 1.84844 15.0002 1.84844C15.7028 1.84844 16.2729 2.41854 16.2729 3.12117V6.51511C16.2729 7.21774 15.7028 7.78784 15.0002 7.78784C14.2975 7.78784 13.7274 7.21774 13.7274 6.51511V3.12117Z" fill="#F98207" stroke="#F98207" stroke-width="0.6"/>
</svg>
