<svg width="34" height="33" viewBox="0 0 34 33" fill="none" xmlns="http://www.w3.org/2000/svg">
<mask id="path-1-outside-1_395_1524" maskUnits="userSpaceOnUse" x="0" y="0" width="34" height="33" fill="black">
<rect fill="white" width="34" height="33"/>
<path d="M32.797 21.6658C32.3841 20.7973 31.3212 20.1914 29.8839 20.7939L21.3353 24.3783C19.9975 24.6147 19.4132 24.4092 18.9033 24.1756L22.3504 22.963C24.0051 22.3812 24.4373 21.1207 24.1317 20.1301C23.942 19.5627 23.536 19.0932 23.002 18.8234C22.468 18.5537 21.8492 18.5055 21.2799 18.6894C20.9248 18.7837 20.6086 18.8704 20.323 18.9485C18.0069 19.582 17.8176 19.6336 15.1929 18.9344C13.4257 18.463 11.41 18.2462 7.94394 21.151L7.22342 21.5983C7.0797 21.4375 6.88801 21.3273 6.67675 21.2839C6.46549 21.2405 6.24587 21.2663 6.05041 21.3575L5.47027 21.6283C5.41318 21.5902 5.35258 21.5577 5.28928 21.5312C5.14402 21.4711 4.98785 21.4417 4.83065 21.445C4.67345 21.4483 4.51865 21.4843 4.37606 21.5505L1.63675 22.8268C1.37178 22.951 1.16681 23.1751 1.06672 23.4501C0.966629 23.7251 0.979574 24.0285 1.10272 24.294L4.71258 32.0291C4.80144 32.2193 4.94294 32.3801 5.12034 32.4924C5.29774 32.6047 5.50361 32.6637 5.71354 32.6626C5.86976 32.6622 6.02428 32.6302 6.16775 32.5683L8.21647 31.6885C8.3706 31.6215 8.50638 31.5185 8.61237 31.388C8.71837 31.2576 8.79146 31.1036 8.82551 30.9391L10.2191 30.2884C10.4596 30.1755 10.6455 29.9719 10.7362 29.7222C10.8269 29.4724 10.8149 29.197 10.7029 28.9561L10.6877 28.9234C10.8613 28.9425 11.0313 28.9863 11.1925 29.0534C14.1276 30.3816 15.5501 30.9752 16.8545 31.0856C16.9994 31.098 17.1415 31.1042 17.2819 31.1042C18.4535 31.1042 19.5305 30.6865 21.3288 29.9894C21.7802 29.8146 22.2922 29.616 22.861 29.4044C22.8794 29.3975 22.8974 29.3894 22.9147 29.38L31.6044 24.7034C32.9849 23.9609 33.2495 22.612 32.797 21.6658ZM7.87237 30.8874L5.824 31.7669C5.76721 31.7949 5.70168 31.7994 5.6416 31.7794C5.58152 31.7595 5.53171 31.7167 5.50296 31.6603L1.89413 23.9254C1.86814 23.8695 1.86535 23.8055 1.88636 23.7475C1.90738 23.6894 1.9505 23.6421 2.0063 23.6158L4.74493 22.3368C4.77765 22.322 4.81301 22.314 4.8489 22.3132C4.88479 22.3125 4.92047 22.3189 4.95379 22.3323C4.97274 22.3388 4.99008 22.3493 5.00463 22.363C5.01917 22.3768 5.03059 22.3936 5.03809 22.4121L7.95702 30.5475C8.00347 30.6769 7.98455 30.8393 7.87237 30.8874ZM9.85056 29.4987L8.69957 30.0358L5.94684 22.365L6.41893 22.1448C6.45052 22.1306 6.48641 22.1293 6.51893 22.1412C6.55145 22.1531 6.57805 22.1772 6.59304 22.2084L9.91387 29.3242C9.92829 29.3559 9.92973 29.3919 9.91789 29.4246C9.90606 29.4572 9.88188 29.4836 9.85056 29.4987ZM31.1915 23.9361L22.5286 28.5968C21.9657 28.8081 21.4619 29.0039 21.0146 29.177C17.0858 30.6999 17.0108 30.7292 11.5521 28.2593C11.1469 28.0904 10.7096 28.0125 10.271 28.0311L7.63082 22.3712L8.43187 21.875C8.44952 21.864 8.46641 21.8518 8.48245 21.8385C11.6453 19.1801 13.3562 19.3463 14.9703 19.7764C17.8221 20.5365 18.1862 20.437 20.5546 19.7891C20.8384 19.7113 21.1529 19.6253 21.506 19.5314C21.6799 19.4687 21.8646 19.4412 22.0492 19.4503C22.2339 19.4595 22.4149 19.5051 22.5818 19.5847C22.7487 19.6642 22.8982 19.7761 23.0216 19.9138C23.145 20.0514 23.2399 20.2122 23.3007 20.3868C23.47 20.9356 23.2474 21.7243 22.062 22.1417L17.6852 23.6787C17.6721 23.6835 17.659 23.6887 17.6466 23.6946L17.4295 23.7947H17.4264L16.529 24.21C16.4771 24.234 16.4303 24.2681 16.3915 24.3102C16.3527 24.3523 16.3226 24.4016 16.3028 24.4553C16.2831 24.5091 16.2741 24.5662 16.2764 24.6234C16.2788 24.6806 16.2923 24.7368 16.3164 24.7888C16.3404 24.8407 16.3745 24.8874 16.4166 24.9263C16.4586 24.9651 16.508 24.9952 16.5617 25.015C16.6155 25.0347 16.6726 25.0437 16.7298 25.0413C16.787 25.039 16.8432 25.0255 16.8951 25.0014L17.6779 24.6422C17.9306 24.6943 18.1745 24.7824 18.4023 24.9037C19.0144 25.191 19.7759 25.5485 21.5383 25.2275C21.5693 25.222 21.5995 25.213 21.6285 25.2006L30.2208 21.598C31.1901 21.1913 31.7809 21.5605 32.01 22.0415C32.285 22.6162 32.0916 23.4516 31.1915 23.9361ZM6.6622 29.8965C6.71107 30.0012 6.71634 30.121 6.67685 30.2296C6.63736 30.3382 6.55634 30.4267 6.45162 30.4756C6.3469 30.5244 6.22706 30.5297 6.11845 30.4902C6.00985 30.4507 5.92138 30.3697 5.87251 30.265L5.11551 28.6409C5.0666 28.5359 5.06138 28.4158 5.101 28.307C5.14062 28.1982 5.22184 28.1096 5.32679 28.0607C5.43173 28.0118 5.55181 28.0066 5.66061 28.0462C5.76941 28.0858 5.85801 28.1671 5.90692 28.272L6.6622 29.8965ZM15.4262 15.7502C16.4812 16.5932 18.0664 17.3564 20.1379 18.0177C20.2241 18.0453 20.3169 18.0453 20.4032 18.0177C22.4746 17.3564 24.0598 16.5932 25.1148 15.7502C26.2458 14.8462 26.8191 13.8167 26.8191 12.6902V3.91893C26.8191 3.86169 26.8079 3.80501 26.786 3.75212C26.7641 3.69923 26.7321 3.65116 26.6916 3.61068C26.6512 3.57019 26.6031 3.53807 26.5502 3.51616C26.4974 3.49424 26.4407 3.48296 26.3835 3.48296C25.6402 3.48024 24.9125 3.26925 24.2831 2.87391C23.6537 2.47858 23.1477 1.91474 22.8225 1.24637C22.7868 1.17257 22.731 1.11031 22.6616 1.06674C22.5921 1.02316 22.5118 1.00004 22.4299 1H18.1112C18.0292 1.00006 17.949 1.0232 17.8796 1.06678C17.8102 1.11035 17.7545 1.17259 17.7189 1.24637C17.3937 1.91474 16.8877 2.47858 16.2582 2.87391C15.6288 3.26925 14.9012 3.48024 14.1579 3.48296C14.0423 3.48296 13.9314 3.5289 13.8496 3.61065C13.7679 3.69241 13.7219 3.8033 13.7219 3.91893V12.6902C13.7219 13.8167 14.2955 14.8462 15.4262 15.7502ZM14.5935 4.33459C15.3762 4.2605 16.1292 3.9977 16.788 3.56872C17.4468 3.13974 17.9918 2.55739 18.3761 1.87158H22.1652C22.5494 2.55716 23.0941 3.13938 23.7526 3.56834C24.4111 3.99731 25.1638 4.26023 25.9461 4.33459V12.6902C25.9461 14.423 24.0364 15.9215 20.2686 17.1448C16.5015 15.9215 14.5911 14.423 14.5911 12.6902L14.5935 4.33459ZM20.271 14.0036C21.1576 14.0035 22.0244 13.7405 22.7615 13.2479C23.4987 12.7553 24.0733 12.0552 24.4126 11.236C24.7519 10.4169 24.8407 9.51554 24.6677 8.64594C24.4948 7.77634 24.0679 6.97755 23.441 6.35056C22.8141 5.72357 22.0154 5.29654 21.1458 5.12347C20.2762 4.9504 19.3749 5.03905 18.5557 5.37822C17.7365 5.71739 17.0363 6.29185 16.5435 7.02896C16.0508 7.76607 15.7877 8.63273 15.7875 9.51936C15.7889 10.708 16.2616 11.8475 17.1021 12.6879C17.9426 13.5284 19.0821 14.0012 20.2707 14.0025L20.271 14.0036ZM20.271 5.90881C20.9856 5.90881 21.6841 6.12071 22.2783 6.5177C22.8724 6.9147 23.3355 7.47897 23.609 8.13915C23.8824 8.79933 23.954 9.52578 23.8146 10.2266C23.6752 10.9275 23.3311 11.5712 22.8258 12.0765C22.3205 12.5818 21.6767 12.9259 20.9759 13.0653C20.275 13.2047 19.5486 13.1332 18.8884 12.8597C18.2282 12.5863 17.664 12.1232 17.267 11.529C16.87 10.9349 16.6581 10.2363 16.6581 9.52177C16.6585 8.56366 17.0392 7.6449 17.7166 6.96728C18.394 6.28966 19.3126 5.9086 20.2707 5.90778L20.271 5.90881ZM18.7866 10.6304V10.4312C18.785 10.3729 18.795 10.3149 18.8162 10.2606C18.8374 10.2063 18.8692 10.1568 18.9098 10.115C18.9505 10.0733 18.9991 10.04 19.0527 10.0174C19.1064 9.99468 19.1641 9.98299 19.2224 9.98299C19.2807 9.98299 19.3384 9.99468 19.3921 10.0174C19.4458 10.04 19.4943 10.0733 19.535 10.115C19.5756 10.1568 19.6074 10.2063 19.6286 10.2606C19.6498 10.3149 19.6598 10.3729 19.6582 10.4312V10.6315C19.6582 10.7392 19.8905 10.9367 20.2707 10.9367C20.6509 10.9367 20.8832 10.7392 20.8832 10.6315V10.2592C20.8832 10.1177 20.824 10.0544 20.1974 9.94948C19.6699 9.85967 18.7866 9.70861 18.7866 8.77956V8.40795C18.8074 8.12904 18.9225 7.86552 19.113 7.66076C19.3035 7.456 19.558 7.3222 19.8347 7.28139V6.95588C19.8379 6.84242 19.8852 6.73468 19.9666 6.65555C20.048 6.57643 20.157 6.53216 20.2705 6.53216C20.384 6.53216 20.493 6.57643 20.5744 6.65555C20.6558 6.73468 20.7031 6.84242 20.7063 6.95588V7.28208C20.983 7.32282 21.2377 7.45659 21.4282 7.66135C21.6188 7.86612 21.734 8.12968 21.7547 8.40863V8.60752C21.7564 8.66578 21.7463 8.72377 21.7252 8.77808C21.704 8.83238 21.6722 8.88189 21.6315 8.92368C21.5909 8.96546 21.5423 8.99868 21.4886 9.02136C21.4349 9.04404 21.3772 9.05573 21.319 9.05573C21.2607 9.05573 21.203 9.04404 21.1493 9.02136C21.0956 8.99868 21.047 8.96546 21.0064 8.92368C20.9658 8.88189 20.9339 8.83238 20.9127 8.77808C20.8916 8.72377 20.8815 8.66578 20.8832 8.60752V8.40795C20.8832 8.30059 20.6506 8.10308 20.2707 8.10308C19.8908 8.10308 19.6582 8.30059 19.6582 8.40795V8.77956C19.6582 8.92064 19.717 8.9843 20.3436 9.08925C20.8715 9.17905 21.7544 9.33011 21.7544 10.2592V10.6294C21.7337 10.9084 21.6186 11.1721 21.428 11.3769C21.2374 11.5817 20.9828 11.7155 20.706 11.7563V12.0828C20.7028 12.1963 20.6555 12.304 20.5741 12.3832C20.4927 12.4623 20.3837 12.5066 20.2702 12.5066C20.1567 12.5066 20.0476 12.4623 19.9662 12.3832C19.8849 12.304 19.8376 12.1963 19.8344 12.0828V11.7566C19.5578 11.7158 19.3034 11.582 19.113 11.3773C18.9225 11.1726 18.8074 10.9092 18.7866 10.6304Z"/>
</mask>
<path d="M32.797 21.6658C32.3841 20.7973 31.3212 20.1914 29.8839 20.7939L21.3353 24.3783C19.9975 24.6147 19.4132 24.4092 18.9033 24.1756L22.3504 22.963C24.0051 22.3812 24.4373 21.1207 24.1317 20.1301C23.942 19.5627 23.536 19.0932 23.002 18.8234C22.468 18.5537 21.8492 18.5055 21.2799 18.6894C20.9248 18.7837 20.6086 18.8704 20.323 18.9485C18.0069 19.582 17.8176 19.6336 15.1929 18.9344C13.4257 18.463 11.41 18.2462 7.94394 21.151L7.22342 21.5983C7.0797 21.4375 6.88801 21.3273 6.67675 21.2839C6.46549 21.2405 6.24587 21.2663 6.05041 21.3575L5.47027 21.6283C5.41318 21.5902 5.35258 21.5577 5.28928 21.5312C5.14402 21.4711 4.98785 21.4417 4.83065 21.445C4.67345 21.4483 4.51865 21.4843 4.37606 21.5505L1.63675 22.8268C1.37178 22.951 1.16681 23.1751 1.06672 23.4501C0.966629 23.7251 0.979574 24.0285 1.10272 24.294L4.71258 32.0291C4.80144 32.2193 4.94294 32.3801 5.12034 32.4924C5.29774 32.6047 5.50361 32.6637 5.71354 32.6626C5.86976 32.6622 6.02428 32.6302 6.16775 32.5683L8.21647 31.6885C8.3706 31.6215 8.50638 31.5185 8.61237 31.388C8.71837 31.2576 8.79146 31.1036 8.82551 30.9391L10.2191 30.2884C10.4596 30.1755 10.6455 29.9719 10.7362 29.7222C10.8269 29.4724 10.8149 29.197 10.7029 28.9561L10.6877 28.9234C10.8613 28.9425 11.0313 28.9863 11.1925 29.0534C14.1276 30.3816 15.5501 30.9752 16.8545 31.0856C16.9994 31.098 17.1415 31.1042 17.2819 31.1042C18.4535 31.1042 19.5305 30.6865 21.3288 29.9894C21.7802 29.8146 22.2922 29.616 22.861 29.4044C22.8794 29.3975 22.8974 29.3894 22.9147 29.38L31.6044 24.7034C32.9849 23.9609 33.2495 22.612 32.797 21.6658ZM7.87237 30.8874L5.824 31.7669C5.76721 31.7949 5.70168 31.7994 5.6416 31.7794C5.58152 31.7595 5.53171 31.7167 5.50296 31.6603L1.89413 23.9254C1.86814 23.8695 1.86535 23.8055 1.88636 23.7475C1.90738 23.6894 1.9505 23.6421 2.0063 23.6158L4.74493 22.3368C4.77765 22.322 4.81301 22.314 4.8489 22.3132C4.88479 22.3125 4.92047 22.3189 4.95379 22.3323C4.97274 22.3388 4.99008 22.3493 5.00463 22.363C5.01917 22.3768 5.03059 22.3936 5.03809 22.4121L7.95702 30.5475C8.00347 30.6769 7.98455 30.8393 7.87237 30.8874ZM9.85056 29.4987L8.69957 30.0358L5.94684 22.365L6.41893 22.1448C6.45052 22.1306 6.48641 22.1293 6.51893 22.1412C6.55145 22.1531 6.57805 22.1772 6.59304 22.2084L9.91387 29.3242C9.92829 29.3559 9.92973 29.3919 9.91789 29.4246C9.90606 29.4572 9.88188 29.4836 9.85056 29.4987ZM31.1915 23.9361L22.5286 28.5968C21.9657 28.8081 21.4619 29.0039 21.0146 29.177C17.0858 30.6999 17.0108 30.7292 11.5521 28.2593C11.1469 28.0904 10.7096 28.0125 10.271 28.0311L7.63082 22.3712L8.43187 21.875C8.44952 21.864 8.46641 21.8518 8.48245 21.8385C11.6453 19.1801 13.3562 19.3463 14.9703 19.7764C17.8221 20.5365 18.1862 20.437 20.5546 19.7891C20.8384 19.7113 21.1529 19.6253 21.506 19.5314C21.6799 19.4687 21.8646 19.4412 22.0492 19.4503C22.2339 19.4595 22.4149 19.5051 22.5818 19.5847C22.7487 19.6642 22.8982 19.7761 23.0216 19.9138C23.145 20.0514 23.2399 20.2122 23.3007 20.3868C23.47 20.9356 23.2474 21.7243 22.062 22.1417L17.6852 23.6787C17.6721 23.6835 17.659 23.6887 17.6466 23.6946L17.4295 23.7947H17.4264L16.529 24.21C16.4771 24.234 16.4303 24.2681 16.3915 24.3102C16.3527 24.3523 16.3226 24.4016 16.3028 24.4553C16.2831 24.5091 16.2741 24.5662 16.2764 24.6234C16.2788 24.6806 16.2923 24.7368 16.3164 24.7888C16.3404 24.8407 16.3745 24.8874 16.4166 24.9263C16.4586 24.9651 16.508 24.9952 16.5617 25.015C16.6155 25.0347 16.6726 25.0437 16.7298 25.0413C16.787 25.039 16.8432 25.0255 16.8951 25.0014L17.6779 24.6422C17.9306 24.6943 18.1745 24.7824 18.4023 24.9037C19.0144 25.191 19.7759 25.5485 21.5383 25.2275C21.5693 25.222 21.5995 25.213 21.6285 25.2006L30.2208 21.598C31.1901 21.1913 31.7809 21.5605 32.01 22.0415C32.285 22.6162 32.0916 23.4516 31.1915 23.9361ZM6.6622 29.8965C6.71107 30.0012 6.71634 30.121 6.67685 30.2296C6.63736 30.3382 6.55634 30.4267 6.45162 30.4756C6.3469 30.5244 6.22706 30.5297 6.11845 30.4902C6.00985 30.4507 5.92138 30.3697 5.87251 30.265L5.11551 28.6409C5.0666 28.5359 5.06138 28.4158 5.101 28.307C5.14062 28.1982 5.22184 28.1096 5.32679 28.0607C5.43173 28.0118 5.55181 28.0066 5.66061 28.0462C5.76941 28.0858 5.85801 28.1671 5.90692 28.272L6.6622 29.8965ZM15.4262 15.7502C16.4812 16.5932 18.0664 17.3564 20.1379 18.0177C20.2241 18.0453 20.3169 18.0453 20.4032 18.0177C22.4746 17.3564 24.0598 16.5932 25.1148 15.7502C26.2458 14.8462 26.8191 13.8167 26.8191 12.6902V3.91893C26.8191 3.86169 26.8079 3.80501 26.786 3.75212C26.7641 3.69923 26.7321 3.65116 26.6916 3.61068C26.6512 3.57019 26.6031 3.53807 26.5502 3.51616C26.4974 3.49424 26.4407 3.48296 26.3835 3.48296C25.6402 3.48024 24.9125 3.26925 24.2831 2.87391C23.6537 2.47858 23.1477 1.91474 22.8225 1.24637C22.7868 1.17257 22.731 1.11031 22.6616 1.06674C22.5921 1.02316 22.5118 1.00004 22.4299 1H18.1112C18.0292 1.00006 17.949 1.0232 17.8796 1.06678C17.8102 1.11035 17.7545 1.17259 17.7189 1.24637C17.3937 1.91474 16.8877 2.47858 16.2582 2.87391C15.6288 3.26925 14.9012 3.48024 14.1579 3.48296C14.0423 3.48296 13.9314 3.5289 13.8496 3.61065C13.7679 3.69241 13.7219 3.8033 13.7219 3.91893V12.6902C13.7219 13.8167 14.2955 14.8462 15.4262 15.7502ZM14.5935 4.33459C15.3762 4.2605 16.1292 3.9977 16.788 3.56872C17.4468 3.13974 17.9918 2.55739 18.3761 1.87158H22.1652C22.5494 2.55716 23.0941 3.13938 23.7526 3.56834C24.4111 3.99731 25.1638 4.26023 25.9461 4.33459V12.6902C25.9461 14.423 24.0364 15.9215 20.2686 17.1448C16.5015 15.9215 14.5911 14.423 14.5911 12.6902L14.5935 4.33459ZM20.271 14.0036C21.1576 14.0035 22.0244 13.7405 22.7615 13.2479C23.4987 12.7553 24.0733 12.0552 24.4126 11.236C24.7519 10.4169 24.8407 9.51554 24.6677 8.64594C24.4948 7.77634 24.0679 6.97755 23.441 6.35056C22.8141 5.72357 22.0154 5.29654 21.1458 5.12347C20.2762 4.9504 19.3749 5.03905 18.5557 5.37822C17.7365 5.71739 17.0363 6.29185 16.5435 7.02896C16.0508 7.76607 15.7877 8.63273 15.7875 9.51936C15.7889 10.708 16.2616 11.8475 17.1021 12.6879C17.9426 13.5284 19.0821 14.0012 20.2707 14.0025L20.271 14.0036ZM20.271 5.90881C20.9856 5.90881 21.6841 6.12071 22.2783 6.5177C22.8724 6.9147 23.3355 7.47897 23.609 8.13915C23.8824 8.79933 23.954 9.52578 23.8146 10.2266C23.6752 10.9275 23.3311 11.5712 22.8258 12.0765C22.3205 12.5818 21.6767 12.9259 20.9759 13.0653C20.275 13.2047 19.5486 13.1332 18.8884 12.8597C18.2282 12.5863 17.664 12.1232 17.267 11.529C16.87 10.9349 16.6581 10.2363 16.6581 9.52177C16.6585 8.56366 17.0392 7.6449 17.7166 6.96728C18.394 6.28966 19.3126 5.9086 20.2707 5.90778L20.271 5.90881ZM18.7866 10.6304V10.4312C18.785 10.3729 18.795 10.3149 18.8162 10.2606C18.8374 10.2063 18.8692 10.1568 18.9098 10.115C18.9505 10.0733 18.9991 10.04 19.0527 10.0174C19.1064 9.99468 19.1641 9.98299 19.2224 9.98299C19.2807 9.98299 19.3384 9.99468 19.3921 10.0174C19.4458 10.04 19.4943 10.0733 19.535 10.115C19.5756 10.1568 19.6074 10.2063 19.6286 10.2606C19.6498 10.3149 19.6598 10.3729 19.6582 10.4312V10.6315C19.6582 10.7392 19.8905 10.9367 20.2707 10.9367C20.6509 10.9367 20.8832 10.7392 20.8832 10.6315V10.2592C20.8832 10.1177 20.824 10.0544 20.1974 9.94948C19.6699 9.85967 18.7866 9.70861 18.7866 8.77956V8.40795C18.8074 8.12904 18.9225 7.86552 19.113 7.66076C19.3035 7.456 19.558 7.3222 19.8347 7.28139V6.95588C19.8379 6.84242 19.8852 6.73468 19.9666 6.65555C20.048 6.57643 20.157 6.53216 20.2705 6.53216C20.384 6.53216 20.493 6.57643 20.5744 6.65555C20.6558 6.73468 20.7031 6.84242 20.7063 6.95588V7.28208C20.983 7.32282 21.2377 7.45659 21.4282 7.66135C21.6188 7.86612 21.734 8.12968 21.7547 8.40863V8.60752C21.7564 8.66578 21.7463 8.72377 21.7252 8.77808C21.704 8.83238 21.6722 8.88189 21.6315 8.92368C21.5909 8.96546 21.5423 8.99868 21.4886 9.02136C21.4349 9.04404 21.3772 9.05573 21.319 9.05573C21.2607 9.05573 21.203 9.04404 21.1493 9.02136C21.0956 8.99868 21.047 8.96546 21.0064 8.92368C20.9658 8.88189 20.9339 8.83238 20.9127 8.77808C20.8916 8.72377 20.8815 8.66578 20.8832 8.60752V8.40795C20.8832 8.30059 20.6506 8.10308 20.2707 8.10308C19.8908 8.10308 19.6582 8.30059 19.6582 8.40795V8.77956C19.6582 8.92064 19.717 8.9843 20.3436 9.08925C20.8715 9.17905 21.7544 9.33011 21.7544 10.2592V10.6294C21.7337 10.9084 21.6186 11.1721 21.428 11.3769C21.2374 11.5817 20.9828 11.7155 20.706 11.7563V12.0828C20.7028 12.1963 20.6555 12.304 20.5741 12.3832C20.4927 12.4623 20.3837 12.5066 20.2702 12.5066C20.1567 12.5066 20.0476 12.4623 19.9662 12.3832C19.8849 12.304 19.8376 12.1963 19.8344 12.0828V11.7566C19.5578 11.7158 19.3034 11.582 19.113 11.3773C18.9225 11.1726 18.8074 10.9092 18.7866 10.6304Z" fill="#3CA5F5"/>
<path d="M32.797 21.6658C32.3841 20.7973 31.3212 20.1914 29.8839 20.7939L21.3353 24.3783C19.9975 24.6147 19.4132 24.4092 18.9033 24.1756L22.3504 22.963C24.0051 22.3812 24.4373 21.1207 24.1317 20.1301C23.942 19.5627 23.536 19.0932 23.002 18.8234C22.468 18.5537 21.8492 18.5055 21.2799 18.6894C20.9248 18.7837 20.6086 18.8704 20.323 18.9485C18.0069 19.582 17.8176 19.6336 15.1929 18.9344C13.4257 18.463 11.41 18.2462 7.94394 21.151L7.22342 21.5983C7.0797 21.4375 6.88801 21.3273 6.67675 21.2839C6.46549 21.2405 6.24587 21.2663 6.05041 21.3575L5.47027 21.6283C5.41318 21.5902 5.35258 21.5577 5.28928 21.5312C5.14402 21.4711 4.98785 21.4417 4.83065 21.445C4.67345 21.4483 4.51865 21.4843 4.37606 21.5505L1.63675 22.8268C1.37178 22.951 1.16681 23.1751 1.06672 23.4501C0.966629 23.7251 0.979574 24.0285 1.10272 24.294L4.71258 32.0291C4.80144 32.2193 4.94294 32.3801 5.12034 32.4924C5.29774 32.6047 5.50361 32.6637 5.71354 32.6626C5.86976 32.6622 6.02428 32.6302 6.16775 32.5683L8.21647 31.6885C8.3706 31.6215 8.50638 31.5185 8.61237 31.388C8.71837 31.2576 8.79146 31.1036 8.82551 30.9391L10.2191 30.2884C10.4596 30.1755 10.6455 29.9719 10.7362 29.7222C10.8269 29.4724 10.8149 29.197 10.7029 28.9561L10.6877 28.9234C10.8613 28.9425 11.0313 28.9863 11.1925 29.0534C14.1276 30.3816 15.5501 30.9752 16.8545 31.0856C16.9994 31.098 17.1415 31.1042 17.2819 31.1042C18.4535 31.1042 19.5305 30.6865 21.3288 29.9894C21.7802 29.8146 22.2922 29.616 22.861 29.4044C22.8794 29.3975 22.8974 29.3894 22.9147 29.38L31.6044 24.7034C32.9849 23.9609 33.2495 22.612 32.797 21.6658ZM7.87237 30.8874L5.824 31.7669C5.76721 31.7949 5.70168 31.7994 5.6416 31.7794C5.58152 31.7595 5.53171 31.7167 5.50296 31.6603L1.89413 23.9254C1.86814 23.8695 1.86535 23.8055 1.88636 23.7475C1.90738 23.6894 1.9505 23.6421 2.0063 23.6158L4.74493 22.3368C4.77765 22.322 4.81301 22.314 4.8489 22.3132C4.88479 22.3125 4.92047 22.3189 4.95379 22.3323C4.97274 22.3388 4.99008 22.3493 5.00463 22.363C5.01917 22.3768 5.03059 22.3936 5.03809 22.4121L7.95702 30.5475C8.00347 30.6769 7.98455 30.8393 7.87237 30.8874ZM9.85056 29.4987L8.69957 30.0358L5.94684 22.365L6.41893 22.1448C6.45052 22.1306 6.48641 22.1293 6.51893 22.1412C6.55145 22.1531 6.57805 22.1772 6.59304 22.2084L9.91387 29.3242C9.92829 29.3559 9.92973 29.3919 9.91789 29.4246C9.90606 29.4572 9.88188 29.4836 9.85056 29.4987ZM31.1915 23.9361L22.5286 28.5968C21.9657 28.8081 21.4619 29.0039 21.0146 29.177C17.0858 30.6999 17.0108 30.7292 11.5521 28.2593C11.1469 28.0904 10.7096 28.0125 10.271 28.0311L7.63082 22.3712L8.43187 21.875C8.44952 21.864 8.46641 21.8518 8.48245 21.8385C11.6453 19.1801 13.3562 19.3463 14.9703 19.7764C17.8221 20.5365 18.1862 20.437 20.5546 19.7891C20.8384 19.7113 21.1529 19.6253 21.506 19.5314C21.6799 19.4687 21.8646 19.4412 22.0492 19.4503C22.2339 19.4595 22.4149 19.5051 22.5818 19.5847C22.7487 19.6642 22.8982 19.7761 23.0216 19.9138C23.145 20.0514 23.2399 20.2122 23.3007 20.3868C23.47 20.9356 23.2474 21.7243 22.062 22.1417L17.6852 23.6787C17.6721 23.6835 17.659 23.6887 17.6466 23.6946L17.4295 23.7947H17.4264L16.529 24.21C16.4771 24.234 16.4303 24.2681 16.3915 24.3102C16.3527 24.3523 16.3226 24.4016 16.3028 24.4553C16.2831 24.5091 16.2741 24.5662 16.2764 24.6234C16.2788 24.6806 16.2923 24.7368 16.3164 24.7888C16.3404 24.8407 16.3745 24.8874 16.4166 24.9263C16.4586 24.9651 16.508 24.9952 16.5617 25.015C16.6155 25.0347 16.6726 25.0437 16.7298 25.0413C16.787 25.039 16.8432 25.0255 16.8951 25.0014L17.6779 24.6422C17.9306 24.6943 18.1745 24.7824 18.4023 24.9037C19.0144 25.191 19.7759 25.5485 21.5383 25.2275C21.5693 25.222 21.5995 25.213 21.6285 25.2006L30.2208 21.598C31.1901 21.1913 31.7809 21.5605 32.01 22.0415C32.285 22.6162 32.0916 23.4516 31.1915 23.9361ZM6.6622 29.8965C6.71107 30.0012 6.71634 30.121 6.67685 30.2296C6.63736 30.3382 6.55634 30.4267 6.45162 30.4756C6.3469 30.5244 6.22706 30.5297 6.11845 30.4902C6.00985 30.4507 5.92138 30.3697 5.87251 30.265L5.11551 28.6409C5.0666 28.5359 5.06138 28.4158 5.101 28.307C5.14062 28.1982 5.22184 28.1096 5.32679 28.0607C5.43173 28.0118 5.55181 28.0066 5.66061 28.0462C5.76941 28.0858 5.85801 28.1671 5.90692 28.272L6.6622 29.8965ZM15.4262 15.7502C16.4812 16.5932 18.0664 17.3564 20.1379 18.0177C20.2241 18.0453 20.3169 18.0453 20.4032 18.0177C22.4746 17.3564 24.0598 16.5932 25.1148 15.7502C26.2458 14.8462 26.8191 13.8167 26.8191 12.6902V3.91893C26.8191 3.86169 26.8079 3.80501 26.786 3.75212C26.7641 3.69923 26.7321 3.65116 26.6916 3.61068C26.6512 3.57019 26.6031 3.53807 26.5502 3.51616C26.4974 3.49424 26.4407 3.48296 26.3835 3.48296C25.6402 3.48024 24.9125 3.26925 24.2831 2.87391C23.6537 2.47858 23.1477 1.91474 22.8225 1.24637C22.7868 1.17257 22.731 1.11031 22.6616 1.06674C22.5921 1.02316 22.5118 1.00004 22.4299 1H18.1112C18.0292 1.00006 17.949 1.0232 17.8796 1.06678C17.8102 1.11035 17.7545 1.17259 17.7189 1.24637C17.3937 1.91474 16.8877 2.47858 16.2582 2.87391C15.6288 3.26925 14.9012 3.48024 14.1579 3.48296C14.0423 3.48296 13.9314 3.5289 13.8496 3.61065C13.7679 3.69241 13.7219 3.8033 13.7219 3.91893V12.6902C13.7219 13.8167 14.2955 14.8462 15.4262 15.7502ZM14.5935 4.33459C15.3762 4.2605 16.1292 3.9977 16.788 3.56872C17.4468 3.13974 17.9918 2.55739 18.3761 1.87158H22.1652C22.5494 2.55716 23.0941 3.13938 23.7526 3.56834C24.4111 3.99731 25.1638 4.26023 25.9461 4.33459V12.6902C25.9461 14.423 24.0364 15.9215 20.2686 17.1448C16.5015 15.9215 14.5911 14.423 14.5911 12.6902L14.5935 4.33459ZM20.271 14.0036C21.1576 14.0035 22.0244 13.7405 22.7615 13.2479C23.4987 12.7553 24.0733 12.0552 24.4126 11.236C24.7519 10.4169 24.8407 9.51554 24.6677 8.64594C24.4948 7.77634 24.0679 6.97755 23.441 6.35056C22.8141 5.72357 22.0154 5.29654 21.1458 5.12347C20.2762 4.9504 19.3749 5.03905 18.5557 5.37822C17.7365 5.71739 17.0363 6.29185 16.5435 7.02896C16.0508 7.76607 15.7877 8.63273 15.7875 9.51936C15.7889 10.708 16.2616 11.8475 17.1021 12.6879C17.9426 13.5284 19.0821 14.0012 20.2707 14.0025L20.271 14.0036ZM20.271 5.90881C20.9856 5.90881 21.6841 6.12071 22.2783 6.5177C22.8724 6.9147 23.3355 7.47897 23.609 8.13915C23.8824 8.79933 23.954 9.52578 23.8146 10.2266C23.6752 10.9275 23.3311 11.5712 22.8258 12.0765C22.3205 12.5818 21.6767 12.9259 20.9759 13.0653C20.275 13.2047 19.5486 13.1332 18.8884 12.8597C18.2282 12.5863 17.664 12.1232 17.267 11.529C16.87 10.9349 16.6581 10.2363 16.6581 9.52177C16.6585 8.56366 17.0392 7.6449 17.7166 6.96728C18.394 6.28966 19.3126 5.9086 20.2707 5.90778L20.271 5.90881ZM18.7866 10.6304V10.4312C18.785 10.3729 18.795 10.3149 18.8162 10.2606C18.8374 10.2063 18.8692 10.1568 18.9098 10.115C18.9505 10.0733 18.9991 10.04 19.0527 10.0174C19.1064 9.99468 19.1641 9.98299 19.2224 9.98299C19.2807 9.98299 19.3384 9.99468 19.3921 10.0174C19.4458 10.04 19.4943 10.0733 19.535 10.115C19.5756 10.1568 19.6074 10.2063 19.6286 10.2606C19.6498 10.3149 19.6598 10.3729 19.6582 10.4312V10.6315C19.6582 10.7392 19.8905 10.9367 20.2707 10.9367C20.6509 10.9367 20.8832 10.7392 20.8832 10.6315V10.2592C20.8832 10.1177 20.824 10.0544 20.1974 9.94948C19.6699 9.85967 18.7866 9.70861 18.7866 8.77956V8.40795C18.8074 8.12904 18.9225 7.86552 19.113 7.66076C19.3035 7.456 19.558 7.3222 19.8347 7.28139V6.95588C19.8379 6.84242 19.8852 6.73468 19.9666 6.65555C20.048 6.57643 20.157 6.53216 20.2705 6.53216C20.384 6.53216 20.493 6.57643 20.5744 6.65555C20.6558 6.73468 20.7031 6.84242 20.7063 6.95588V7.28208C20.983 7.32282 21.2377 7.45659 21.4282 7.66135C21.6188 7.86612 21.734 8.12968 21.7547 8.40863V8.60752C21.7564 8.66578 21.7463 8.72377 21.7252 8.77808C21.704 8.83238 21.6722 8.88189 21.6315 8.92368C21.5909 8.96546 21.5423 8.99868 21.4886 9.02136C21.4349 9.04404 21.3772 9.05573 21.319 9.05573C21.2607 9.05573 21.203 9.04404 21.1493 9.02136C21.0956 8.99868 21.047 8.96546 21.0064 8.92368C20.9658 8.88189 20.9339 8.83238 20.9127 8.77808C20.8916 8.72377 20.8815 8.66578 20.8832 8.60752V8.40795C20.8832 8.30059 20.6506 8.10308 20.2707 8.10308C19.8908 8.10308 19.6582 8.30059 19.6582 8.40795V8.77956C19.6582 8.92064 19.717 8.9843 20.3436 9.08925C20.8715 9.17905 21.7544 9.33011 21.7544 10.2592V10.6294C21.7337 10.9084 21.6186 11.1721 21.428 11.3769C21.2374 11.5817 20.9828 11.7155 20.706 11.7563V12.0828C20.7028 12.1963 20.6555 12.304 20.5741 12.3832C20.4927 12.4623 20.3837 12.5066 20.2702 12.5066C20.1567 12.5066 20.0476 12.4623 19.9662 12.3832C19.8849 12.304 19.8376 12.1963 19.8344 12.0828V11.7566C19.5578 11.7158 19.3034 11.582 19.113 11.3773C18.9225 11.1726 18.8074 10.9092 18.7866 10.6304Z" stroke="#3CA5F5" stroke-width="0.5376" mask="url(#path-1-outside-1_395_1524)"/>
</svg>
